<svg xmlns="http://www.w3.org/2000/svg" xmlns:xlink="http://www.w3.org/1999/xlink" viewBox="0 0 16 16"><defs><style>.cls-1{fill:url(#linear-gradient);}.cls-2{fill:url(#linear-gradient-2);}.cls-3{fill:url(#linear-gradient-3);}</style><linearGradient id="linear-gradient" x1="-692.07" y1="537.18" x2="-692.97" y2="538.13" gradientTransform="matrix(16, 0, 0, -16, 11088.59, 8610.68)" gradientUnits="userSpaceOnUse"><stop offset="0" stop-color="#1980ba"/><stop offset="1" stop-color="#4ab7e0"/></linearGradient><linearGradient id="linear-gradient-2" x1="-439.75" y1="482.98" x2="-445.53" y2="485.52" gradientTransform="matrix(2.5, 0, 0, -5.98, 1112.31, 2902.76)" xlink:href="#linear-gradient"/><linearGradient id="linear-gradient-3" x1="-283.73" y1="257.87" x2="-292.47" y2="267" gradientTransform="matrix(1.64, 0, 0, -1.67, 483.83, 443.52)" xlink:href="#linear-gradient"/></defs><title>Group 580</title><g id="Layer_2" data-name="Layer 2"><g id="Layer_1-2" data-name="Layer 1"><g id="Group_58" data-name="Group 58"><g id="Group_56" data-name="Group 56"><g id="Group_55" data-name="Group 55"><path id="Path_46" data-name="Path 46" class="cls-1" d="M13.66,2.34A8,8,0,1,0,16,8,8,8,0,0,0,13.66,2.34ZM8,15.06A7.06,7.06,0,1,1,15.06,8h0A7.06,7.06,0,0,1,8,15.06Z"/></g></g><g id="Group_57" data-name="Group 57"><path id="Path_47" data-name="Path 47" class="cls-2" d="M8.87,6.12h-1a.2.2,0,0,0-.2.17L6.58,11.86a.21.21,0,0,0,.16.24h1a.2.2,0,0,0,.2-.16L9.07,6.36a.2.2,0,0,0-.16-.23Z"/><path id="Path_48" data-name="Path 48" class="cls-3" d="M9.33,4.1a.74.74,0,0,0-.51-.2,1,1,0,0,0-.94.94.73.73,0,0,0,.18.51.7.7,0,0,0,.51.22,1,1,0,0,0,.95-1A.72.72,0,0,0,9.33,4.1Z"/></g></g></g></g></svg>