<svg xmlns="http://www.w3.org/2000/svg" viewBox="0 0 44 44"><defs><style>.cls-1{fill:#f5b300;}.cls-2{fill:#fff;}</style></defs><title>Crypto Card - Currency0</title><g id="Layer_2" data-name="Layer 2"><g id="Layer_1-2" data-name="Layer 1"><g id="Crypto_Card_-_Currency" data-name="Crypto Card - Currency"><g id="Group"><g id="Oval-2"><circle class="cls-1" cx="22" cy="22" r="20"/><path class="cls-2" d="M22,44A22,22,0,1,1,44,22,22,22,0,0,1,22,44ZM22,2A20,20,0,1,0,42,22,20,20,0,0,0,22,2Z"/></g><g id="Shape"><path class="cls-2" d="M22.08,33a.6.6,0,0,1-.19-.06c-.24,0-.48-.12-.74-.19h0c-.25-.07-.5-.14-.74-.19-.07,0-.12-.05-.13-.09a.16.16,0,0,1,0-.13v0c.21-.91.42-1.86.68-2.73,0,0,0-.05,0-.08h0c0-.06,0-.1-.06-.14-.42-.11-.84-.22-1.32-.33-.05.24-.12.48-.19.74s-.13.51-.18.75-.12.48-.18.71v0c-.06.24-.13.5-.18.75l0,0c0,.06,0,.1-.1.1l-.1,0c-.54-.17-1.07-.28-1.59-.39a.22.22,0,0,1-.13-.08.17.17,0,0,1,0-.14c.2-.91.42-1.85.69-2.75a.08.08,0,0,1,0-.07.4.4,0,0,0,0-.15l-3.71-1c.05-.1.09-.2.13-.3l0,0,.11-.27,0,0,0,0c.2-.47.4-.94.55-1.36.05-.17.11-.17.27-.17a9.33,9.33,0,0,0,1.16.28.76.76,0,0,0,.21,0,.58.58,0,0,0,.58-.53l0-.14c.66-2.72,1.35-5.53,2-8.34a1,1,0,0,0-.64-1.1c-.39-.14-.77-.23-1.11-.32h0l-.06,0-.2,0A.1.1,0,0,1,17,15.1.11.11,0,0,1,17,15l.23-.93h0c.07-.26.14-.53.2-.78l.71.17h0l.88.22.83.21h0l.87.22a.2.2,0,0,0,.1,0c.09,0,.13-.06.17-.18l.27-1.17h0l.05-.21.31-1.37c0-.12.08-.19.17-.19l.1,0c.51.16,1,.28,1.54.39a.22.22,0,0,1,.13.08.17.17,0,0,1,0,.14c-.11.45-.22.91-.32,1.38s-.21.89-.31,1.32a.46.46,0,0,1-.06.22l.69.17.64.16s.07-.05.1-.1a.18.18,0,0,1,.05-.07c.13-.6.3-1.32.53-2.1l.16-.66c0-.08,0-.13.08-.13l.08,0c.3.1.6.17.91.25h0l.71.18a.05.05,0,0,1,.05,0,.05.05,0,0,0,.05,0q-.21,1-.42,1.83l0,.06,0,.15a5.8,5.8,0,0,1-.21.82c-.06.17,0,.22.16.28l1.74.82a4.49,4.49,0,0,1,1.38,1.33,3.41,3.41,0,0,1,.32,2.58,3.51,3.51,0,0,1-.8,1.6,3.19,3.19,0,0,1-1.16.72l-.07,0h0l-.14,0,.31.22h0l.32.22a3.53,3.53,0,0,1,1.28,1.88,4.38,4.38,0,0,1-.11,1.87,5.45,5.45,0,0,1-1,2A3.25,3.25,0,0,1,26.39,30a7.33,7.33,0,0,1-1.15.09,14.5,14.5,0,0,1-2.08-.2l-.11,0c-.1,0-.17.06-.21.19-.1.42-.2.85-.31,1.3s-.21.93-.32,1.4v0C22.17,32.94,22.15,33,22.08,33Zm-.94-10c-.07,0-.08.05-.12.15v0c-.05.29-.13.57-.2.84h0v0c-.06.26-.13.53-.18.8-.13.44-.23.87-.34,1.33v.06c-.08.32-.17.7-.27,1.08a.24.24,0,0,1,.11.06l.22.06h0l.18,0h0a11.83,11.83,0,0,0,2.37.46,5.6,5.6,0,0,0,.65,0,3.52,3.52,0,0,0,1.25-.2,1.72,1.72,0,0,0,1.07-1.1,1.84,1.84,0,0,0-.17-1.6,3.53,3.53,0,0,0-1.17-1,11.09,11.09,0,0,0-3.22-1l-.1,0Zm.93-6c-.09,0-.13.06-.17.18-.23.92-.52,2-.88,3.2a.15.15,0,0,0,0,.1.3.3,0,0,0,.13.1l.31.08.29.07.66.1a11.4,11.4,0,0,0,1.75.17,4,4,0,0,0,.6-.1,1.57,1.57,0,0,0,1.14-.9,1.41,1.41,0,0,0-.1-1.32,2.59,2.59,0,0,0-1.26-1,12.15,12.15,0,0,0-1.87-.55L22.16,17A.16.16,0,0,0,22.07,17Z"/></g></g></g></g></g></svg>