<svg xmlns="http://www.w3.org/2000/svg" xmlns:xlink="http://www.w3.org/1999/xlink" viewBox="0 0 16 16"><defs><style>.cls-1{fill:url(#linear-gradient);}.cls-2{fill:url(#linear-gradient-2);}</style><linearGradient id="linear-gradient" x1="-630.85" y1="537.17" x2="-631.83" y2="538.14" gradientTransform="matrix(16, 0, 0, -16, 10109.66, 8610.68)" gradientUnits="userSpaceOnUse"><stop offset="0" stop-color="#1980ba"/><stop offset="1" stop-color="#4ab7e0"/></linearGradient><linearGradient id="linear-gradient-2" x1="-535.78" y1="517.57" x2="-538.93" y2="519.13" gradientTransform="matrix(4.95, 0, 0, -9.97, 2669.62, 5174.07)" xlink:href="#linear-gradient"/></defs><title>Group 470</title><g id="Layer_2" data-name="Layer 2"><g id="Layer_1-2" data-name="Layer 1"><g id="Group_47" data-name="Group 47"><g id="Group_44" data-name="Group 44"><g id="Group_43" data-name="Group 43"><path id="Path_32" data-name="Path 32" class="cls-1" d="M13.66,2.34A8,8,0,1,0,16,8,8,8,0,0,0,13.66,2.34ZM8,15.06A7.06,7.06,0,1,1,15.06,8h0A7.06,7.06,0,0,1,8,15.06Z"/></g></g><g id="Group_46" data-name="Group 46"><g id="Group_45" data-name="Group 45"><path id="Path_33" data-name="Path 33" class="cls-2" d="M8.5,7.53h-1a1,1,0,1,1,0-2.07h2a.47.47,0,1,0,0-.94h-1v-1a.47.47,0,0,0-.94,0v1h0a2,2,0,1,0,0,4h1a1,1,0,1,1,.06,2.07H6.5a.47.47,0,0,0,0,.94h1v1a.47.47,0,0,0,.94,0v-1h0a2,2,0,1,0,0-3.95Z"/></g></g></g></g></g></svg>