<svg xmlns="http://www.w3.org/2000/svg" xmlns:xlink="http://www.w3.org/1999/xlink" viewBox="0 0 16.1 16.67"><defs><style>.cls-1{fill:url(#linear-gradient);}.cls-2{fill:url(#linear-gradient-2);}.cls-3{fill:url(#linear-gradient-3);}.cls-4{fill:url(#linear-gradient-4);}.cls-5{fill:url(#linear-gradient-5);}.cls-6{fill:url(#linear-gradient-6);}.cls-7{fill:url(#linear-gradient-7);}.cls-8{fill:url(#linear-gradient-8);}</style><linearGradient id="linear-gradient" x1="15.1" y1="17.58" x2="-1.11" y2="0.93" gradientUnits="userSpaceOnUse"><stop offset="0" stop-color="#1980ba"/><stop offset="1" stop-color="#4ab7e0"/></linearGradient><linearGradient id="linear-gradient-2" x1="17.24" y1="15.49" x2="1.04" y2="-1.16" xlink:href="#linear-gradient"/><linearGradient id="linear-gradient-3" x1="16.8" y1="15.92" x2="0.59" y2="-0.73" xlink:href="#linear-gradient"/><linearGradient id="linear-gradient-4" x1="15.22" y1="17.46" x2="-0.98" y2="0.81" xlink:href="#linear-gradient"/><linearGradient id="linear-gradient-5" x1="17.89" y1="14.86" x2="1.69" y2="-1.79" xlink:href="#linear-gradient"/><linearGradient id="linear-gradient-6" x1="14.84" y1="17.82" x2="-1.36" y2="1.18" xlink:href="#linear-gradient"/><linearGradient id="linear-gradient-7" x1="14.57" y1="18.09" x2="-1.64" y2="1.44" xlink:href="#linear-gradient"/><linearGradient id="linear-gradient-8" x1="11.9" y1="20.69" x2="-4.31" y2="4.04" xlink:href="#linear-gradient"/></defs><title>Asset 50</title><g id="Layer_2" data-name="Layer 2"><g id="Layer_1-2" data-name="Layer 1"><path class="cls-1" d="M16.09,4.41a.3.3,0,0,0,0-.1.09.09,0,0,0,0,0A.38.38,0,0,0,16,4.13l-4-4A.42.42,0,0,0,11.83,0l0,0-.11,0H.45A.45.45,0,0,0,0,.44V16.22a.45.45,0,0,0,.45.45h15.2a.45.45,0,0,0,.45-.45V4.44A0,0,0,0,0,16.09,4.41ZM12.1,4V1.53L14.56,4Zm-.45.9H15.2V15.77H.9V.89H11.2V4.44A.45.45,0,0,0,11.65,4.89Z"/><rect class="cls-2" x="3.2" y="5.59" width="9.7" height="0.9"/><rect class="cls-3" x="3.2" y="3.19" width="3.3" height="0.9"/><rect class="cls-4" x="3.2" y="7.99" width="6.5" height="0.9"/><rect class="cls-5" x="10.4" y="7.99" width="2.5" height="0.9"/><rect class="cls-6" x="3.2" y="10.39" width="9.7" height="0.9"/><rect class="cls-7" x="6.8" y="12.79" width="6.1" height="0.9"/><rect class="cls-8" x="3.2" y="12.79" width="2.9" height="0.9"/></g></g></svg>