<svg xmlns="http://www.w3.org/2000/svg" xmlns:xlink="http://www.w3.org/1999/xlink" viewBox="0 0 16.1 23.31"><defs><style>.cls-1{fill:url(#linear-gradient);}.cls-2{fill:url(#linear-gradient-2);}</style><linearGradient id="linear-gradient" x1="15.18" y1="23.39" x2="-0.76" y2="0.15" gradientUnits="userSpaceOnUse"><stop offset="0" stop-color="#1980ba"/><stop offset="1" stop-color="#4ab7e0"/></linearGradient><linearGradient id="linear-gradient-2" x1="14.14" y1="24.1" x2="-1.8" y2="0.87" xlink:href="#linear-gradient"/></defs><title>Asset 40</title><g id="Layer_2" data-name="Layer 2"><g id="Layer_1-2" data-name="Layer 1"><path class="cls-1" d="M14.77,10.83A8,8,0,0,0,12.5,8.55V4.14A4.32,4.32,0,0,0,8.2,0H7.9A4.31,4.31,0,0,0,3.6,4.14V8.55A8,8,0,0,0,8.06,23.31,8,8,0,0,0,12.47,22,8.06,8.06,0,0,0,14.77,10.83ZM11.6,8,11.47,8l0,0c-.15-.07-.31-.14-.48-.2l-.32-.12-.31-.1c-.21-.06-.38-.11-.54-.14l-.23-.05-.64-.1H8.78a6.53,6.53,0,0,0-.73,0,6.29,6.29,0,0,0-.73,0H7.17l-.63.1L6.3,7.4l-.53.14-.19.06-.13,0-.31.12L4.65,8,4.5,8V4.14A3.42,3.42,0,0,1,7.91.9h.28A3.42,3.42,0,0,1,11.6,4.14ZM5.72,8.5l.33-.11.41-.1.3-.06a4.14,4.14,0,0,1,.45-.07l.2,0a6,6,0,0,1,1.27,0l.2,0,.45.06.3.07.41.1.33.11.21.07a7.52,7.52,0,0,1,1.14.56A7.14,7.14,0,0,1,8.05,22.4h0A7.15,7.15,0,0,1,.92,15.23,7.18,7.18,0,0,1,5.51,8.58Z"/><path class="cls-2" d="M3.26,15.67H4.43a3.69,3.69,0,0,0,.75,1.8l-.84.84a.47.47,0,0,0,0,.64.46.46,0,0,0,.64,0l.83-.83a3.69,3.69,0,0,0,1.79.74V20a.44.44,0,0,0,.13.31.45.45,0,0,0,.32.14h0A.44.44,0,0,0,8.5,20V18.86a3.61,3.61,0,0,0,1.79-.75l.83.84a.45.45,0,0,0,.63,0,.45.45,0,0,0,.14-.32.44.44,0,0,0-.13-.31l-.84-.85a3.59,3.59,0,0,0,.74-1.8h1.18a.44.44,0,0,0,.32-.13.46.46,0,0,0,.13-.32.45.45,0,0,0-.42-.44H11.66a3.76,3.76,0,0,0-.74-1.8l.83-.83a.45.45,0,0,0,0-.64h0a.44.44,0,0,0-.63,0l-.84.83a3.61,3.61,0,0,0-1.78-.74V10.4a.45.45,0,1,0-.9,0v1.19a3.65,3.65,0,0,0-1.79.74L5,11.5a.45.45,0,0,0-.64.63l.83.84a3.72,3.72,0,0,0-.74,1.8H3.26a.45.45,0,0,0,0,.9ZM8.05,18H8a2.76,2.76,0,0,1-2-4.7A2.72,2.72,0,0,1,8,12.46H8a2.77,2.77,0,0,1,2.76,2.74v0A2.76,2.76,0,0,1,8.1,18h0Z"/></g></g></svg>