<svg xmlns="http://www.w3.org/2000/svg" viewBox="0 0 24 24"><defs><style>.cls-1{fill:#a9dff1;}.cls-2{fill:#fff;}</style></defs><title>Asset 30</title><g id="Layer_2" data-name="Layer 2"><g id="Layer_1-2" data-name="Layer 1"><path id="Path_36" data-name="Path 36" class="cls-1" d="M22.76,9.33H20.52a.85.85,0,0,1-.86-.86.86.86,0,0,1,.25-.61L21.5,6.28a1.24,1.24,0,0,0,0-1.75l-2-2a1.25,1.25,0,0,0-1.74,0L16.14,4.09a.86.86,0,0,1-1.47-.61V1.24A1.24,1.24,0,0,0,13.43,0H10.57A1.24,1.24,0,0,0,9.33,1.24V3.48a.85.85,0,0,1-.86.86.86.86,0,0,1-.61-.25L6.28,2.5a1.26,1.26,0,0,0-1.75,0l-2,2a1.24,1.24,0,0,0,0,1.75L4.09,7.86a.86.86,0,0,1-.61,1.47H1.24A1.24,1.24,0,0,0,0,10.57v2.86a1.24,1.24,0,0,0,1.24,1.24H3.48a.85.85,0,0,1,.86.86.86.86,0,0,1-.25.61L2.5,17.73a1.23,1.23,0,0,0,0,1.74l2,2a1.26,1.26,0,0,0,1.75,0l1.58-1.59a.86.86,0,0,1,1.47.61v2.25A1.24,1.24,0,0,0,10.57,24h2.86a1.24,1.24,0,0,0,1.24-1.24V20.52a.85.85,0,0,1,.86-.86.86.86,0,0,1,.61.25l1.59,1.59a1.25,1.25,0,0,0,1.74,0l2-2a1.23,1.23,0,0,0,0-1.74l-1.59-1.59a.86.86,0,0,1,.61-1.47h2.25A1.24,1.24,0,0,0,24,13.43V10.57A1.24,1.24,0,0,0,22.76,9.33Zm.35,4.1a.35.35,0,0,1-.35.35H20.52a1.75,1.75,0,0,0-1.24,3l1.59,1.59a.36.36,0,0,1,0,.49h0l-2,2a.34.34,0,0,1-.49,0h0l-1.58-1.59a1.75,1.75,0,0,0-3,1.24v2.25a.35.35,0,0,1-.35.34H10.57a.35.35,0,0,1-.35-.34h0V20.52A1.73,1.73,0,0,0,9.14,18.9a1.72,1.72,0,0,0-1.91.38L5.65,20.87a.36.36,0,0,1-.49,0h0l-2-2a.36.36,0,0,1,0-.49h0l1.59-1.58a1.76,1.76,0,0,0,0-2.48,1.74,1.74,0,0,0-1.24-.51H1.24a.35.35,0,0,1-.35-.35h0V10.57a.35.35,0,0,1,.35-.35H3.48a1.75,1.75,0,0,0,1.24-3L3.13,5.65a.36.36,0,0,1,0-.49h0l2-2a.36.36,0,0,1,.49,0h0L7.23,4.72a1.76,1.76,0,0,0,2.48,0,1.74,1.74,0,0,0,.51-1.24V1.24a.35.35,0,0,1,.35-.35h2.86a.35.35,0,0,1,.35.35h0V3.48a1.75,1.75,0,0,0,3,1.24l1.58-1.59a.36.36,0,0,1,.49,0h0l2,2a.36.36,0,0,1,0,.49h0L19.28,7.23a1.76,1.76,0,0,0,0,2.48,1.74,1.74,0,0,0,1.24.51h2.24a.35.35,0,0,1,.35.35h0Z"/><path id="Path_37" data-name="Path 37" class="cls-2" d="M12,8.51A3.49,3.49,0,1,0,15.49,12,3.49,3.49,0,0,0,12,8.51Zm0,6.21A2.72,2.72,0,1,1,14.72,12h0A2.74,2.74,0,0,1,12,14.72Z"/></g></g></svg>