<svg xmlns="http://www.w3.org/2000/svg" xmlns:xlink="http://www.w3.org/1999/xlink" viewBox="0 0 16 16"><defs><style>.cls-1{fill:url(#linear-gradient);}.cls-2{fill:url(#linear-gradient-2);}.cls-3{fill:url(#linear-gradient-3);}</style><linearGradient id="linear-gradient" x1="-712.36" y1="537.17" x2="-713.36" y2="538.15" gradientTransform="matrix(16, 0, 0, -16, 11413.93, 8610.68)" gradientUnits="userSpaceOnUse"><stop offset="0" stop-color="#1980ba"/><stop offset="1" stop-color="#4ab7e0"/></linearGradient><linearGradient id="linear-gradient-2" x1="-47.21" y1="137.8" x2="-62.15" y2="151.05" gradientTransform="matrix(1.08, 0, 0, -1.2, 65.34, 182.53)" xlink:href="#linear-gradient"/><linearGradient id="linear-gradient-3" x1="-599.4" y1="479.63" x2="-602.76" y2="482.38" gradientTransform="matrix(4.78, 0, 0, -5.77, 2882.23, 2780.64)" xlink:href="#linear-gradient"/></defs><title>Group 510</title><g id="Layer_2" data-name="Layer 2"><g id="Layer_1-2" data-name="Layer 1"><g id="Group_51" data-name="Group 51"><g id="Group_49" data-name="Group 49"><g id="Group_48" data-name="Group 48"><path id="Path_34" data-name="Path 34" class="cls-1" d="M13.66,2.34A8,8,0,1,0,16,8,8,8,0,0,0,13.66,2.34ZM8,15.06A7.06,7.06,0,1,1,15.06,8h0A7.06,7.06,0,0,1,8,15.06Z"/></g></g><g id="Group_50" data-name="Group 50"><rect id="Rectangle_38" data-name="Rectangle 38" class="cls-2" x="7.51" y="10.73" width="1.08" height="1.2" rx="0.45"/><path id="Path_35" data-name="Path 35" class="cls-3" d="M9.7,4.74a2.42,2.42,0,0,0-3.37,0,2.22,2.22,0,0,0-.72,1.67v.16a.18.18,0,0,0,.18.18h.69a.18.18,0,0,0,.18-.18h0V6.49a1.33,1.33,0,0,1,.4-1,1.21,1.21,0,0,1,1-.39,1.39,1.39,0,0,1,.93.38A1.16,1.16,0,0,1,9,7.14l0,0-.31.32a6,6,0,0,0-.87,1,2.12,2.12,0,0,0-.26.83l0,.29a.17.17,0,0,0,.15.2h.76a.18.18,0,0,0,.17-.17,2.1,2.1,0,0,1,.64-1.26l.5-.51a2.11,2.11,0,0,0,.66-1.52A2.24,2.24,0,0,0,9.7,4.74Z"/></g></g></g></g></svg>